# xmcd CD database file
#
# Track frame offsets:
#	150
#	15660
#	30350
#	46912
#	61972
#	82725
#	99937
#	117975
#	134942
#	151725
#	171412
#
# Disc length: 2530 seconds
#
# Revision: 0
# Processed by: cddbd v1.5.1PL0 Copyright (c) Steve Scherf et al.
# Submitted via: CDex 1.51
#
DISCID=8109e00b
DTITLE=Cory Morrow - Nothing Left To Hide
DYEAR=2005
DGENRE=Country
TTITLE0=Heart On Fire
TTITLE1=Good Intentions
TTITLE2=Beat Of Your Heart
TTITLE3=I Couldn't Be There
TTITLE4=A Whole Lot
TTITLE5=Nothing Left To Hide
TTITLE6=Restless Girl
TTITLE7=My Way Home
TTITLE8=Choices
TTITLE9=Best Low
TTITLE10=Carnival Ride
EXTD=YEAR: 2005
EXTT0=
EXTT1=
EXTT2=
EXTT3=
EXTT4=
EXTT5=
EXTT6=
EXTT7=
EXTT8=
EXTT9=
EXTT10=
PLAYORDER=
